<?xml version="1.0" standalone="no"?>
<!DOCTYPE svg PUBLIC "-//W3C//DTD SVG 20010904//EN"
 "http://www.w3.org/TR/2001/REC-SVG-20010904/DTD/svg10.dtd">
<svg version="1.0" xmlns="http://www.w3.org/2000/svg"
 width="3098.000000pt" height="2296.000000pt" viewBox="0 0 3098.000000 2296.000000"
 preserveAspectRatio="xMidYMid meet">

<g transform="translate(0.000000,2296.000000) scale(0.100000,-0.100000)"
fill="#000000" stroke="none">
<path d="M19940 22699 c-1799 -52 -3663 -468 -5882 -1313 -753 -287 -1132
-448 -1558 -662 -2531 -1272 -4829 -3027 -6821 -5209 -410 -450 -911 -1045
-1293 -1537 -190 -246 -308 -521 -347 -815 -17 -128 -6 -412 21 -536 124 -582
524 -1037 1069 -1217 142 -47 484 -124 644 -145 153 -20 441 -20 594 0 391 51
743 185 1068 406 140 95 214 159 537 461 2740 2566 4911 4157 7623 5588 321
170 1166 592 1489 744 2521 1187 5105 2070 7636 2611 262 56 289 64 355 114
127 96 188 292 135 433 -122 326 -849 608 -2090 812 -1085 179 -1683 244
-2435 266 -356 10 -365 10 -745 -1z"/>
<path d="M26665 20179 c-280 -20 -728 -95 -1547 -259 -3729 -748 -6861 -1937
-9591 -3642 -2065 -1290 -3946 -2702 -5452 -4093 -536 -496 -648 -626 -806
-949 -252 -514 -288 -1113 -99 -1651 38 -107 114 -271 166 -358 38 -63 2039
-3080 2495 -3762 314 -471 440 -627 702 -873 519 -488 1193 -820 1902 -936
206 -34 306 -41 590 -41 524 0 735 44 1690 345 2677 846 5219 2078 7520 3644
626 426 1107 791 1616 1228 1494 1284 2767 2782 3604 4243 927 1617 1310 3144
1134 4525 -65 513 -229 932 -509 1306 -252 334 -544 571 -971 785 -742 371
-1617 546 -2444 488z"/>
<path d="M4307 10370 c-670 -53 -1220 -234 -1767 -582 -886 -563 -1468 -1376
-1735 -2422 -155 -609 -115 -1235 110 -1701 176 -365 467 -630 825 -749 58
-19 195 -53 305 -76 345 -71 562 -131 803 -221 668 -250 1166 -629 1765 -1344
626 -746 1158 -1239 1772 -1640 707 -463 1424 -692 2023 -646 321 25 693 129
976 274 376 192 667 489 819 834 198 451 225 997 91 1863 -266 1721 -866 3276
-1682 4362 -288 382 -646 754 -987 1024 -714 565 -1569 905 -2535 1009 -171
18 -629 27 -783 15z"/>
<path d="M1395 3653 c-342 -41 -635 -174 -817 -371 -331 -359 -363 -886 -88
-1439 379 -763 1252 -1363 2129 -1464 148 -17 447 -6 575 20 496 102 826 405
916 841 19 91 21 128 17 275 -4 149 -9 185 -37 293 -95 370 -287 690 -604
1008 -215 216 -431 377 -696 521 -301 163 -662 279 -972 312 -90 10 -354 13
-423 4z"/>
</g>
</svg>
