<svg width="122" height="52" viewBox="0 0 122 52" fill="none" xmlns="http://www.w3.org/2000/svg">
<path d="M53.4513 24.9529C55.0024 24.3684 55.5419 23.1994 55.5419 21.9182C55.5419 19.288 53.3839 17.9618 50.5963 17.9618H46.7298C45.763 17.9618 45.0662 18.6586 45.0662 19.6254V32.0343C45.0662 33.0009 45.763 33.6979 46.7298 33.6979H50.8211C54.6427 33.6979 56.621 31.8321 56.621 29.1121C56.621 27.3362 55.8344 25.8525 53.4513 24.9533V24.9529ZM48.1011 20.5243H50.5963C51.8327 20.5243 52.597 21.1538 52.597 22.2778C52.597 23.3794 51.8328 24.1211 50.5963 24.1211H48.1011V20.5243ZM50.8211 31.1349H48.1011V26.4366H50.8211C52.9342 26.4366 53.6762 27.6055 53.6762 28.8419C53.6762 30.0558 52.9119 31.1349 50.8211 31.1349Z" fill="#1E90FF"/>
<path d="M61.8082 32.3488V19.1081C61.8082 18.3212 61.1336 17.6469 60.347 17.6469C59.5376 17.6469 58.8633 18.3212 58.8633 19.1081V32.3488C58.8633 33.1581 59.5376 33.81 60.347 33.81C61.1336 33.81 61.8082 33.1581 61.8082 32.3488Z" fill="#1E90FF"/>
<path d="M70.0607 21.8733C67.4754 21.8733 64.0586 23.8741 64.0586 27.8754C64.0586 31.8994 67.4754 33.855 70.0607 33.855C72.6235 33.855 76.0628 31.8994 76.0628 27.8754C76.0628 23.8739 72.6235 21.8733 70.0607 21.8733ZM70.0607 24.4361C71.6342 24.4361 73.1405 25.6949 73.1405 27.8756C73.1405 30.0336 71.6344 31.2924 70.0607 31.2924C68.4647 31.2924 66.981 30.0336 66.981 27.8756C66.981 25.6949 68.4647 24.4361 70.0607 24.4361Z" fill="#1E90FF"/>
<path d="M83.6857 21.8733C81.1004 21.8733 77.6836 23.8741 77.6836 27.8754C77.6836 31.8994 81.1004 33.855 83.6857 33.855C86.2485 33.855 89.6878 31.8994 89.6878 27.8754C89.6878 23.8739 86.2485 21.8733 83.6857 21.8733ZM83.6857 24.4361C85.2592 24.4361 86.7655 25.6949 86.7655 27.8756C86.7655 30.0336 85.2594 31.2924 83.6857 31.2924C82.0897 31.2924 80.606 30.0336 80.606 27.8756C80.606 25.6949 82.0897 24.4361 83.6857 24.4361Z" fill="#1E90FF"/>
<path d="M106.842 21.8958C104.661 21.8958 103.245 23.312 102.615 24.7058C101.941 22.7051 100.412 21.8958 98.7264 21.8958C96.2987 21.8958 94.9724 23.7391 94.8824 24.5484V23.4244C94.8824 22.615 94.2078 21.9407 93.4212 21.9407C92.6118 21.9407 91.9375 22.615 91.9375 23.4244V32.3489C91.9375 33.1582 92.6118 33.8101 93.4212 33.8101C94.2078 33.8101 94.8824 33.1582 94.8824 32.3489V26.9313C94.9722 26.3018 95.6466 24.4134 97.6698 24.4134C98.9962 24.4134 100.053 25.2452 100.053 27.2684V32.3489C100.053 33.1582 100.727 33.8101 101.514 33.8101C102.323 33.8101 102.998 33.1582 102.998 32.3489V27.2684V26.9088V26.9313C103.065 26.3018 103.762 24.4134 105.785 24.4134C107.111 24.4134 108.168 25.2452 108.168 27.2684V32.3489C108.168 33.1582 108.842 33.8101 109.629 33.8101C110.438 33.8101 111.113 33.1582 111.113 32.3489V27.2684C111.113 23.3794 109.112 21.8958 106.842 21.8958Z" fill="#1E90FF"/>
<path d="M17.769 10.1695C16.6835 10.0065 15.4517 9.82001 14.0186 10.351C13.612 10.5005 12.2526 11.055 11.2359 12.4683C10.9989 12.7975 10.4242 13.6681 10.1471 15.2509C9.54389 18.6922 10.8679 22.5419 12.8086 24.8693C14.936 27.4217 15.1678 27.6519 15.1678 27.6519C15.7173 28.198 16.1223 28.8736 16.6195 29.4666C16.7271 29.596 16.9471 29.8564 17.043 30.2531C17.1487 30.6934 17.0463 31.0747 16.9825 31.2815C16.6062 32.4828 15.5929 33.7667 15.1072 34.911C14.9694 35.2353 14.2199 37.0939 14.9861 38.9438C15.1138 39.2529 15.5625 40.2948 16.6799 40.9602C17.6883 41.5602 18.6829 41.5214 19.3819 41.4845C21.0824 41.3954 22.4586 40.7334 23.6971 39.9521C24.8263 39.2396 28.7314 36.7022 30.9966 31.7654C31.7461 30.1322 32.1073 28.6936 32.529 27.0066C32.8011 25.9177 32.9977 24.9062 33.0129 23.6593C33.0313 22.0005 32.8453 21.1365 31.8079 19.7837C29.6079 16.9145 21.3113 10.7007 17.769 10.1697V10.1695Z" fill="#1E90FF"/>
<path d="M33.9201 17.2471C35.0561 17.2471 35.9769 16.3262 35.9769 15.1902C35.9769 14.0543 35.0561 13.1334 33.9201 13.1334C32.7842 13.1334 31.8633 14.0543 31.8633 15.1902C31.8633 16.3262 32.7842 17.2471 33.9201 17.2471Z" fill="#1E90FF"/>
</svg>
