<svg width="19" height="21" viewBox="0 0 19 21" fill="none" xmlns="http://www.w3.org/2000/svg">
<path d="M15.3921 20.16C14.2488 21.2683 13.0004 21.0933 11.7988 20.5683C10.5271 20.0317 9.36042 20.0083 8.01876 20.5683C6.33876 21.2917 5.45209 21.0817 4.44876 20.16C-1.24457 14.2917 -0.404575 5.355 6.05876 5.02833C7.63376 5.11 8.73043 5.89167 9.65209 5.96167C11.0288 5.68167 12.3471 4.87667 13.8171 4.98167C15.5788 5.12167 16.9088 5.82167 17.7838 7.08167C14.1438 9.26333 15.0071 14.0583 18.3438 15.4C17.6788 17.15 16.8154 18.8883 15.3804 20.1717L15.3921 20.16ZM9.53543 4.95833C9.36043 2.35667 11.4721 0.21 13.8988 0C14.2371 3.01 11.1688 5.25 9.53543 4.95833Z" fill="white"/>
</svg>
