<svg width="19" height="22" viewBox="0 0 19 22" fill="none" xmlns="http://www.w3.org/2000/svg">
<path d="M15.3921 20.66C14.2488 21.7683 13.0004 21.5933 11.7988 21.0683C10.5271 20.5317 9.36042 20.5083 8.01876 21.0683C6.33876 21.7917 5.45209 21.5817 4.44876 20.66C-1.24457 14.7917 -0.404575 5.855 6.05876 5.52833C7.63376 5.61 8.73043 6.39167 9.65209 6.46167C11.0288 6.18167 12.3471 5.37667 13.8171 5.48167C15.5788 5.62167 16.9088 6.32167 17.7838 7.58167C14.1438 9.76333 15.0071 14.5583 18.3438 15.9C17.6788 17.65 16.8154 19.3883 15.3804 20.6717L15.3921 20.66ZM9.53543 5.45833C9.36043 2.85667 11.4721 0.71 13.8988 0.5C14.2371 3.51 11.1688 5.75 9.53543 5.45833Z" fill="black"/>
</svg>
