<svg width="54" height="39" viewBox="0 0 54 39" fill="none" xmlns="http://www.w3.org/2000/svg">
<path d="M51.8917 8.03228C51.4317 6.2443 51.3167 5.79731 49.4001 6.07668C47.4835 6.35605 47.2919 19.1141 47.4835 23.9565C47.7391 25.5396 48.7485 28.7617 50.7417 28.9852C52.735 29.2087 53.3611 26.8434 53.425 25.6327C53.1056 20.5109 52.3517 9.82027 51.8917 8.03228Z" fill="#FEE044"/>
<path d="M2.77513 24.7293C1.44613 23.3113 1.11388 22.9569 2.54448 21.7399C3.97508 20.5229 15.5945 28.1273 19.8422 31.2049C21.1122 32.3506 23.3962 35.0364 22.3718 36.614C21.3474 38.1916 18.83 37.209 17.6993 36.5205C13.2783 33.1809 4.10413 26.1472 2.77513 24.7293Z" fill="#FEE044"/>
<path d="M29.8977 2.97512C28.8554 0.707337 28.5948 0.140396 26.1437 0.879136C23.6926 1.61788 26.5635 18.471 28.0008 24.8167C28.7242 26.854 30.8398 30.9058 33.5148 30.8151C36.1897 30.7243 36.4338 27.4856 36.2214 25.8775C34.5478 19.1883 30.94 5.2429 29.8977 2.97512Z" fill="#FEE044"/>
</svg>
