<svg width="21" height="22" viewBox="0 0 21 22" fill="none" xmlns="http://www.w3.org/2000/svg">
<path d="M10.7042 15.1111C11.624 15.1111 12.506 14.7457 13.1564 14.0954C13.8067 13.445 14.1721 12.5629 14.1721 11.6432C14.1721 10.7234 13.8067 9.84137 13.1564 9.19101C12.506 8.54066 11.624 8.17529 10.7042 8.17529C9.78448 8.17529 8.9024 8.54066 8.25205 9.19101C7.60169 9.84137 7.23633 10.7234 7.23633 11.6432C7.23633 12.5629 7.60169 13.445 8.25205 14.0954C8.9024 14.7457 9.78448 15.1111 10.7042 15.1111Z" stroke="white" stroke-width="1.30046" stroke-linecap="round" stroke-linejoin="round"/>
<path d="M2.90039 15.11V8.17422C2.90039 7.02454 3.3571 5.92195 4.17004 5.10901C4.98299 4.29606 6.08558 3.83936 7.23525 3.83936H14.171C15.3207 3.83936 16.4233 4.29606 17.2362 5.10901C18.0492 5.92195 18.5059 7.02454 18.5059 8.17422V15.11C18.5059 16.2597 18.0492 17.3623 17.2362 18.1752C16.4233 18.9882 15.3207 19.4449 14.171 19.4449H7.23525C6.08558 19.4449 4.98299 18.9882 4.17004 18.1752C3.3571 17.3623 2.90039 16.2597 2.90039 15.11Z" stroke="white" stroke-width="1.30046"/>
<path d="M15.4707 6.88268L15.4799 6.87256" stroke="white" stroke-width="1.30046" stroke-linecap="round" stroke-linejoin="round"/>
</svg>
