<svg width="18" height="18" viewBox="0 0 18 18" fill="none" xmlns="http://www.w3.org/2000/svg">
<path d="M8.70202 12.3679C9.62176 12.3679 10.5038 12.0025 11.1542 11.3522C11.8045 10.7018 12.1699 9.81976 12.1699 8.90002C12.1699 7.98028 11.8045 7.09821 11.1542 6.44785C10.5038 5.79749 9.62176 5.43213 8.70202 5.43213C7.78228 5.43213 6.90021 5.79749 6.24985 6.44785C5.5995 7.09821 5.23413 7.98028 5.23413 8.90002C5.23413 9.81976 5.5995 10.7018 6.24985 11.3522C6.90021 12.0025 7.78228 12.3679 8.70202 12.3679Z" stroke="white" stroke-width="1.30046" stroke-linecap="round" stroke-linejoin="round"/>
<path d="M0.89917 12.3668V5.43105C0.89917 4.28138 1.35588 3.17879 2.16882 2.36584C2.98177 1.5529 4.08436 1.09619 5.23403 1.09619H12.1698C13.3195 1.09619 14.4221 1.5529 15.235 2.36584C16.048 3.17879 16.5047 4.28138 16.5047 5.43105V12.3668C16.5047 13.5165 16.048 14.6191 15.235 15.432C14.4221 16.245 13.3195 16.7017 12.1698 16.7017H5.23403C4.08436 16.7017 2.98177 16.245 2.16882 15.432C1.35588 14.6191 0.89917 13.5165 0.89917 12.3668Z" stroke="white" stroke-width="1.30046"/>
<path d="M13.4705 4.13952L13.4797 4.12939" stroke="white" stroke-width="1.30046" stroke-linecap="round" stroke-linejoin="round"/>
</svg>
