<svg width="17" height="18" viewBox="0 0 17 18" fill="none" xmlns="http://www.w3.org/2000/svg">
<g clip-path="url(#clip0_1148_8788)">
<path d="M15.4062 1.23688H1.59375C1.28035 1.23369 0.978492 1.35495 0.7544 1.57407C0.530308 1.79318 0.402291 2.09224 0.398438 2.40563V16.2739C0.402987 16.5868 0.531311 16.8852 0.755327 17.1038C0.979343 17.3223 1.28081 17.4432 1.59375 17.44H15.4062C15.7197 17.4425 16.0213 17.3208 16.2453 17.1016C16.4693 16.8823 16.5974 16.5833 16.6016 16.2699V2.40164C16.596 2.08917 16.4673 1.79154 16.2435 1.57343C16.0196 1.35533 15.7188 1.23438 15.4062 1.23688Z" stroke="white" stroke-width="0.980298" stroke-linejoin="round"/>
<path d="M2.79672 7.31104H5.20195V15.05H2.79672V7.31104ZM4 3.45947C4.27587 3.45947 4.54554 3.54129 4.7749 3.69459C5.00426 3.84788 5.183 4.06575 5.28851 4.32065C5.39402 4.57554 5.42155 4.856 5.36764 5.12655C5.31372 5.3971 5.18077 5.64558 4.98561 5.84056C4.79045 6.03553 4.54185 6.16824 4.27125 6.2219C4.00065 6.27556 3.72021 6.24775 3.46542 6.142C3.21062 6.03625 2.99292 5.8573 2.83984 5.6278C2.68677 5.39829 2.60521 5.12854 2.60547 4.85268C2.60582 4.48305 2.7529 4.12869 3.01439 3.86745C3.27587 3.60621 3.63038 3.45947 4 3.45947ZM6.7107 7.31104H9.01633V8.37354H9.0482C9.36961 7.76525 10.1532 7.12377 11.3233 7.12377C13.7591 7.11846 14.2106 8.7215 14.2106 10.8V15.05H11.8054V11.2848C11.8054 10.3883 11.7895 9.23416 10.5556 9.23416C9.3218 9.23416 9.11195 10.2117 9.11195 11.2263V15.05H6.7107V7.31104Z" fill="white"/>
</g>
<defs>
<clipPath id="clip0_1148_8788">
<rect width="17" height="17" fill="white" transform="translate(0 0.838379)"/>
</clipPath>
</defs>
</svg>
