<svg width="17" height="18" viewBox="0 0 17 18" fill="none" xmlns="http://www.w3.org/2000/svg">
<g clip-path="url(#clip0_401_14)">
<path d="M15.4064 0.49469H1.59387C1.28048 0.491501 0.978614 0.612766 0.754522 0.831878C0.53043 1.05099 0.402413 1.35005 0.39856 1.66344V15.5317C0.403109 15.8446 0.531433 16.143 0.755449 16.3616C0.979465 16.5801 1.28093 16.701 1.59387 16.6978H15.4064C15.7198 16.7003 16.0214 16.5786 16.2454 16.3594C16.4694 16.1401 16.5975 15.8411 16.6017 15.5277V1.65946C16.5961 1.34699 16.4674 1.04935 16.2436 0.831245C16.0197 0.613138 15.7189 0.492191 15.4064 0.49469Z" stroke="white" stroke-width="0.980298" stroke-linejoin="round"/>
<path d="M2.79709 6.5686H5.20232V14.3076H2.79709V6.5686ZM4.00037 2.71704C4.27624 2.71704 4.54591 2.79886 4.77526 2.95215C5.00462 3.10545 5.18336 3.32332 5.28887 3.57822C5.39438 3.83311 5.42192 4.11357 5.368 4.38412C5.31409 4.65467 5.18114 4.90315 4.98598 5.09812C4.79082 5.2931 4.54221 5.42581 4.27161 5.47947C4.00101 5.53313 3.72058 5.50532 3.46578 5.39957C3.21099 5.29382 2.99328 5.11487 2.84021 4.88537C2.68714 4.65586 2.60557 4.38611 2.60584 4.11024C2.60619 3.74062 2.75327 3.38626 3.01475 3.12502C3.27624 2.86378 3.63074 2.71704 4.00037 2.71704ZM6.71107 6.5686H9.0167V7.6311H9.04857C9.36998 7.02282 10.1536 6.38134 11.3236 6.38134C13.7594 6.37603 14.211 7.97907 14.211 10.0576V14.3076H11.8058V10.5424C11.8058 9.64587 11.7898 8.49173 10.556 8.49173C9.32216 8.49173 9.11232 9.46923 9.11232 10.4839V14.3076H6.71107V6.5686Z" fill="white"/>
</g>
<defs>
<clipPath id="clip0_401_14">
<rect width="17" height="17" fill="white" transform="translate(0 0.0964355)"/>
</clipPath>
</defs>
</svg>
