<svg width="20" height="21" viewBox="0 0 20 21" fill="none" xmlns="http://www.w3.org/2000/svg">
<g clip-path="url(#clip0_393_220)">
<path d="M11.4031 10.0347L3.02899 18.8082C3.12303 19.1414 3.29202 19.4488 3.52305 19.7067C3.75408 19.9647 4.04102 20.1664 4.36195 20.2964C4.68288 20.4265 5.02929 20.4814 5.37472 20.4571C5.72014 20.4327 6.05542 20.3297 6.35493 20.1559L15.7773 14.7896L11.4031 10.0347Z" fill="#EA4335"/>
<path d="M19.8706 8.54332L15.7961 6.20947L11.2096 10.2342L15.8147 14.777L19.8582 12.4681C20.2165 12.2806 20.5165 11.9985 20.7258 11.6526C20.9352 11.3067 21.0459 10.91 21.0459 10.5057C21.0459 10.1013 20.9352 9.70471 20.7258 9.35878C20.5165 9.01285 20.2165 8.73082 19.8582 8.54325L19.8706 8.54332Z" fill="#FBBC04"/>
<path d="M3.02899 2.15991C2.97837 2.34704 2.95318 2.54013 2.95408 2.73398V18.2341C2.9546 18.4279 2.97978 18.6208 3.02899 18.8083L11.6901 10.2594L3.02899 2.15991Z" fill="#4285F4"/>
<path d="M11.4655 10.484L15.7961 6.20962L6.38616 0.818238C6.03212 0.610893 5.62945 0.501087 5.21917 0.500004C4.20101 0.498026 3.30588 1.17379 3.02899 2.15364L11.4655 10.484Z" fill="#34A853"/>
</g>
<defs>
<clipPath id="clip0_393_220">
<rect width="18.0919" height="20" fill="white" transform="translate(0.954071 0.5)"/>
</clipPath>
</defs>
</svg>
