<svg width="120" height="28" viewBox="0 0 120 28" fill="none" xmlns="http://www.w3.org/2000/svg">
    <path d="M45.6465 22.9021H48.6912V21.4257C49.6831 22.4983 51.0554 23.1556 52.543 23.1556C55.5877 23.1556 58.183 20.9298 58.183 16.7433C58.183 12.6953 55.5186 10.4463 52.543 10.4463C51.0552 10.4463 49.6829 11.0691 48.6912 12.1072V4.87598L45.6465 6.28307V22.9021ZM51.8512 13.0298C53.6275 13.0298 55.046 14.1829 55.046 16.7433C55.046 19.2922 53.6156 20.4801 51.8512 20.4801C50.2252 20.4801 48.6912 19.1999 48.6912 17.3893V16.0745C48.6912 14.2636 50.2368 13.0298 51.8512 13.0298Z" fill="black"/>
    <path d="M72.9915 19.0389H69.9698C69.8777 19.8349 68.9781 20.7575 66.8211 20.7575C64.7797 20.7575 63.5227 19.6503 63.2115 17.7589H73.1186C73.1416 17.5977 73.1648 17.1591 73.1648 16.8366C73.1648 13.0536 70.685 10.4473 66.7175 10.4473C62.8422 10.4473 60.1436 13.0191 60.1436 16.8136C60.1436 20.5504 62.7731 23.1684 66.7175 23.1684C70.6157 23.1684 72.7955 21.0808 72.9915 19.0394V19.0389ZM66.752 12.8229C68.8396 12.8229 69.9004 14.1258 70.0275 15.6022H63.246C63.6153 13.8378 64.9068 12.8229 66.752 12.8229Z" fill="black"/>
    <path d="M87.973 19.0379H84.9512C84.8591 19.8339 83.9595 20.7565 81.8028 20.7565C79.7614 20.7565 78.5044 19.6493 78.1929 17.7579H88.1001C88.123 17.5968 88.1462 17.1582 88.1462 16.8356C88.1462 13.0527 85.6665 10.4463 81.6989 10.4463C77.8239 10.4463 75.125 13.0181 75.125 16.8126C75.125 20.5494 77.7546 23.1674 81.6989 23.1674C85.5971 23.1674 87.777 21.0798 87.9732 19.0384L87.973 19.0379ZM81.7335 12.8219C83.821 12.8219 84.8818 14.1248 85.009 15.6013H78.2275C78.5964 13.8368 79.8883 12.8219 81.7335 12.8219Z" fill="black"/>
    <path d="M119.827 19.0389H116.806C116.714 19.8349 115.814 20.7575 113.657 20.7575C111.616 20.7575 110.359 19.6503 110.047 17.7589H119.955C119.978 17.5977 120 17.1591 120 16.8366C120 13.0536 117.521 10.4473 113.553 10.4473C109.678 10.4473 106.979 13.0191 106.979 16.8136C106.979 20.5504 109.609 23.1684 113.553 23.1684C117.452 23.1684 119.631 21.0808 119.827 19.0394V19.0389ZM113.588 12.8229C115.676 12.8229 116.737 14.1258 116.863 15.6022H110.082C110.451 13.8378 111.743 12.8229 113.588 12.8229Z" fill="black"/>
    <path d="M104.419 4.87598L101.432 6.28307V22.9021H104.419V4.87598Z" fill="black"/>
    <path d="M96.126 23.1328C96.8407 23.1328 97.4062 23.0057 97.7058 22.8907V20.5149C97.4866 20.6072 97.0024 20.7224 96.5179 20.7224C95.48 20.7224 95.3302 19.9845 95.3302 18.8308V13.0759H98.9747V10.6539H95.3302V6.61719H94.4997L89.3906 12.5568V13.0759H92.2855V19.7534C92.2855 22.6597 94.3728 23.1326 96.126 23.1326V23.1328Z" fill="black"/>
    <path d="M29.2727 2.1947C29.2565 2.3883 29.1372 2.57248 28.9218 2.61886C25.8509 3.25337 21.9222 4.49411 17.6559 6.81815C13.9834 8.82099 11.2754 11.2249 9.20614 13.1796C8.51851 13.8266 7.55779 14.0867 6.64865 13.8661L6.3746 13.8032C5.07132 13.4951 4.51129 11.9173 5.33786 10.8423C7.26469 8.34967 10.3968 5.12689 15.0834 2.86308C18.7862 1.30403 22.2047 0.376221 26.0603 0.988024C26.6505 1.08175 29.3394 1.39641 29.2728 2.19451L29.2727 2.1947Z" fill="black"/>
    <path d="M11.1196 16.3847L14.0613 20.8155C15.0863 22.3555 16.963 23.0512 18.7267 22.5377C21.5884 21.7069 25.0625 20.2885 28.5634 17.8232C31.7918 15.5523 36.0944 10.7589 35.3937 6.46668C35.2459 5.56178 34.687 4.74963 33.8345 4.31488C33.8212 4.30815 33.8145 4.30141 33.8012 4.29468C32.7364 3.74754 31.5251 3.55836 30.3471 3.76794C27.1125 4.33529 22.507 5.44304 18.1743 8.1514C15.419 9.87384 13.1562 11.6365 11.4589 13.2712C10.6071 14.0953 10.4672 15.4055 11.1196 16.3849V16.3847Z" fill="black"/>
    <path d="M1.25912 18.3746C1.57186 17.1885 2.21753 16.2221 3.39803 15.52C5.0152 14.5541 6.79884 15.0539 7.19817 15.1618C11.4377 16.3439 12.1432 22.0849 12.2163 22.909C12.3162 23.9898 12.0366 24.5165 11.8303 24.7867C11.3445 25.442 10.5724 25.6039 10.2995 25.6649C8.89848 25.9578 7.14968 24.9386 5.65702 23.1251C4.76809 22.0453 3.99521 21.5328 2.58935 21.2733C1.25431 21.027 0.948123 19.5549 1.25912 18.3746Z" fill="black"/>
    <path d="M2.02436 25.9351C3.1424 26.6349 4.43046 26.5742 4.90132 25.7994C5.37217 25.0246 4.84752 23.8292 3.72948 23.1294C2.61143 22.4296 1.32337 22.4904 0.852517 23.2651C0.381661 24.0399 0.906311 25.2353 2.02436 25.9351Z" fill="black"/>
</svg>
