<svg width="186" height="41" viewBox="0 0 186 41" fill="none" xmlns="http://www.w3.org/2000/svg">
    <path d="M70.751 34.2628H75.4703V31.9743C77.0078 33.6369 79.1349 34.6557 81.4406 34.6557C86.1599 34.6557 90.1825 31.2057 90.1825 24.7167C90.1825 18.4423 86.0527 14.9563 81.4406 14.9563C79.1345 14.9563 77.0074 15.9215 75.4703 17.5306V6.32227L70.751 8.50326V34.2628ZM80.3682 18.9606C83.1216 18.9606 85.3201 20.748 85.3201 24.7167C85.3201 28.6674 83.1032 30.5087 80.3682 30.5087C77.8479 30.5087 75.4703 28.5243 75.4703 25.7179V23.6799C75.4703 20.8731 77.8659 18.9606 80.3682 18.9606Z" fill="white"/>
    <path d="M113.136 28.2741H108.452C108.31 29.5078 106.915 30.9378 103.572 30.9378C100.408 30.9378 98.4594 29.2217 97.9769 26.2901H113.333C113.369 26.0403 113.405 25.3604 113.405 24.8604C113.405 18.9969 109.561 14.957 103.411 14.957C97.4046 14.957 93.2217 18.9433 93.2217 24.8249C93.2217 30.6169 97.2975 34.6747 103.411 34.6747C109.453 34.6747 112.832 31.439 113.136 28.2748V28.2741ZM103.465 18.6392C106.701 18.6392 108.345 20.6587 108.542 22.9472H98.0305C98.6028 20.2123 100.605 18.6392 103.465 18.6392Z" fill="white"/>
    <path d="M136.357 28.2741H131.673C131.53 29.5078 130.136 30.9378 126.793 30.9378C123.629 30.9378 121.68 29.2217 121.198 26.2901H136.554C136.589 26.0403 136.625 25.3604 136.625 24.8604C136.625 18.9969 132.782 14.957 126.632 14.957C120.626 14.957 116.442 18.9433 116.442 24.8249C116.442 30.6169 120.518 34.6747 126.632 34.6747C132.674 34.6747 136.053 31.439 136.357 28.2748L136.357 28.2741ZM126.686 18.6392C129.921 18.6392 131.565 20.6587 131.763 22.9472H121.251C121.823 20.2123 123.825 18.6392 126.686 18.6392Z" fill="white"/>
    <path d="M185.732 28.2741H181.048C180.905 29.5078 179.511 30.9378 176.168 30.9378C173.003 30.9378 171.055 29.2217 170.573 26.2901H185.929C185.964 26.0403 186 25.3604 186 24.8604C186 18.9969 182.157 14.957 176.007 14.957C170 14.957 165.817 18.9433 165.817 24.8249C165.817 30.6169 169.893 34.6747 176.007 34.6747C182.049 34.6747 185.428 31.439 185.732 28.2748V28.2741ZM176.061 18.6392C179.297 18.6392 180.941 20.6587 181.138 22.9472H170.626C171.199 20.2123 173.2 18.6392 176.061 18.6392Z" fill="white"/>
    <path d="M161.849 6.32227L157.219 8.50326V34.2628H161.849V6.32227Z" fill="white"/>
    <path d="M148.995 34.6207C150.103 34.6207 150.98 34.4237 151.444 34.2454V30.5629C151.105 30.706 150.354 30.8846 149.603 30.8846C147.994 30.8846 147.762 29.7408 147.762 27.9526V19.0324H153.411V15.2783H147.762V9.02148H146.475L138.556 18.2279V19.0324H143.043V29.3827C143.043 33.8873 146.278 34.6203 148.995 34.6203V34.6207Z" fill="white"/>
    <path d="M45.3732 2.16511C45.3481 2.4652 45.1632 2.75067 44.8294 2.82256C40.0694 3.80605 33.9799 5.7292 27.3672 9.33146C21.6748 12.4359 17.4774 16.1619 14.2701 19.1917C13.2043 20.1946 11.7152 20.5976 10.306 20.2558L9.88122 20.1582C7.86113 19.6807 6.99308 17.2352 8.27428 15.5689C11.2609 11.7053 16.1157 6.71 23.3799 3.20111C29.1192 0.784581 34.4179 -0.653527 40.394 0.294767C41.3089 0.440039 45.4767 0.927765 45.3735 2.16481L45.3732 2.16511Z" fill="white"/>
    <path d="M17.2341 24.1588L21.7936 31.0265C23.3823 33.4135 26.2913 34.4919 29.025 33.696C33.4607 32.4083 38.8456 30.2098 44.272 26.3886C49.2759 22.8686 55.945 15.4389 54.8589 8.78591C54.6298 7.3833 53.7635 6.12448 52.4421 5.45062C52.4215 5.44018 52.4111 5.42974 52.3905 5.4193C50.74 4.57123 48.8625 4.27801 47.0366 4.60286C42.0231 5.48224 34.8845 7.19926 28.1688 11.3972C23.8981 14.067 20.3907 16.7991 17.76 19.3329C16.4397 20.6102 16.2228 22.641 17.2341 24.1591V24.1588Z" fill="white"/>
    <path d="M1.9514 27.2441C2.43614 25.4057 3.43693 23.9076 5.2667 22.8194C7.77331 21.3223 10.538 22.0969 11.1569 22.2643C17.7282 24.0964 18.8217 32.995 18.9351 34.2723C19.0899 35.9476 18.6565 36.764 18.3367 37.1828C17.5838 38.1986 16.387 38.4494 15.964 38.544C13.7924 38.998 11.0818 37.4182 8.76814 34.6073C7.3903 32.9336 6.19233 32.1392 4.01325 31.7371C1.94394 31.3553 1.46935 29.0736 1.9514 27.2441Z" fill="white"/>
    <path d="M3.13746 38.9622C4.87043 40.047 6.86692 39.9528 7.59675 38.7519C8.32657 37.551 7.51337 35.6982 5.7804 34.6135C4.04743 33.5287 2.05094 33.6229 1.32111 34.8238C0.591281 36.0247 1.40449 37.8775 3.13746 38.9622Z" fill="white"/>
</svg>
