<svg width="290" height="91" viewBox="0 0 290 91" fill="none" xmlns="http://www.w3.org/2000/svg">
<g clip-path="url(#clip0_226_2028)">
<path d="M124.62 42.8875C129.069 41.2111 130.616 37.8584 130.616 34.1835C130.616 26.6397 124.427 22.8359 116.432 22.8359H105.342C102.569 22.8359 100.57 24.8345 100.57 27.6074V63.1979C100.57 65.9702 102.569 67.9694 105.342 67.9694H117.076C128.037 67.9694 133.711 62.6181 133.711 54.8166C133.711 49.723 131.455 45.4677 124.62 42.8887V42.8875ZM109.275 30.1858H116.432C119.978 30.1858 122.17 31.991 122.17 35.2149C122.17 38.3744 119.978 40.5018 116.432 40.5018H109.275V30.1858ZM117.076 60.6184H109.275V47.1429H117.076C123.137 47.1429 125.265 50.4957 125.265 54.0417C125.265 57.5233 123.073 60.6184 117.076 60.6184Z" fill="#8C52FF"/>
<path d="M148.605 64.1008V26.1245C148.605 23.8677 146.67 21.9336 144.414 21.9336C142.092 21.9336 140.158 23.8677 140.158 26.1245V64.1008C140.158 66.4221 142.092 68.2918 144.414 68.2918C146.67 68.2918 148.605 66.4221 148.605 64.1008Z" fill="#8C52FF"/>
<path d="M172.268 34.0547C164.853 34.0547 155.053 39.7932 155.053 51.2695C155.053 62.8109 164.853 68.4199 172.268 68.4199C179.618 68.4199 189.482 62.8109 189.482 51.2695C189.482 39.7926 179.618 34.0547 172.268 34.0547ZM172.268 41.4051C176.781 41.4051 181.101 45.0156 181.101 51.2701C181.101 57.4596 176.781 61.0701 172.268 61.0701C167.69 61.0701 163.435 57.4596 163.435 51.2701C163.435 45.0156 167.69 41.4051 172.268 41.4051Z" fill="#8C52FF"/>
<path d="M211.34 34.0547C203.925 34.0547 194.125 39.7932 194.125 51.2695C194.125 62.8109 203.925 68.4199 211.34 68.4199C218.69 68.4199 228.555 62.8109 228.555 51.2695C228.555 39.7926 218.69 34.0547 211.34 34.0547ZM211.34 41.4051C215.853 41.4051 220.173 45.0156 220.173 51.2701C220.173 57.4596 215.854 61.0701 211.34 61.0701C206.762 61.0701 202.507 57.4596 202.507 51.2701C202.507 45.0156 206.762 41.4051 211.34 41.4051Z" fill="#8C52FF"/>
<path d="M277.75 34.1191C271.496 34.1191 267.434 38.1812 265.629 42.1789C263.695 36.4404 259.31 34.1191 254.475 34.1191C247.511 34.1191 243.708 39.406 243.449 41.7273V38.5034C243.449 36.1821 241.515 34.248 239.258 34.248C236.937 34.248 235.003 36.1821 235.003 38.5034V64.1001C235.003 66.4214 236.937 68.2911 239.258 68.2911C241.515 68.2911 243.449 66.4214 243.449 64.1001V48.5617C243.707 46.7564 245.641 41.3401 251.444 41.3401C255.248 41.3401 258.278 43.7258 258.278 49.5287V64.1001C258.278 66.4214 260.212 68.2911 262.469 68.2911C264.79 68.2911 266.725 66.4214 266.725 64.1001V49.5287V48.4972V48.5617C266.918 46.7564 268.917 41.3401 274.719 41.3401C278.524 41.3401 281.554 43.7258 281.554 49.5287V64.1001C281.554 66.4214 283.488 68.2911 285.745 68.2911C288.066 68.2911 290 66.4214 290 64.1001V49.5287C290 38.3745 284.262 34.1191 277.75 34.1191Z" fill="#8C52FF"/>
<path d="M22.2826 0.486178C19.1693 0.0186156 15.6364 -0.516236 11.5258 1.00676C10.3597 1.43555 6.46074 3.02583 3.54475 7.07936C2.86507 8.02361 1.21663 10.5205 0.421776 15.0604C-1.3082 24.9306 2.48932 35.9719 8.05559 42.6472C14.1573 49.9679 14.8221 50.6282 14.8221 50.6282C16.3981 52.1945 17.5596 54.1321 18.9857 55.833C19.2942 56.2042 19.9254 56.9511 20.2002 58.0887C20.5036 59.3517 20.2099 60.4453 20.0269 61.0383C18.9475 64.484 16.0412 68.1663 14.6482 71.4484C14.2531 72.3784 12.1034 77.7092 14.301 83.0149C14.667 83.9015 15.954 86.8899 19.159 88.7984C22.0511 90.5192 24.9038 90.408 26.9086 90.302C31.7861 90.0465 35.733 88.1478 39.2853 85.9069C42.524 83.8633 53.7244 76.5859 60.2212 62.4262C62.3709 57.742 63.4069 53.616 64.6163 48.7773C65.3969 45.6544 65.9608 42.7532 66.0042 39.1769C66.0572 34.4192 65.5235 31.9411 62.5482 28.0609C56.2384 19.8318 32.4424 2.00976 22.2826 0.486762V0.486178Z" fill="#8C52FF"/>
<path d="M68.6073 20.7868C71.8654 20.7868 74.5066 18.1456 74.5066 14.8875C74.5066 11.6295 71.8654 8.98828 68.6073 8.98828C65.3492 8.98828 62.708 11.6295 62.708 14.8875C62.708 18.1456 65.3492 20.7868 68.6073 20.7868Z" fill="#8C52FF"/>
</g>
<defs>
<clipPath id="clip0_226_2028">
<rect width="290" height="90.3538" fill="white"/>
</clipPath>
</defs>
</svg>
