<svg width="73" height="88" viewBox="0 0 73 88" fill="none" xmlns="http://www.w3.org/2000/svg">
<path d="M21.8022 0.473512C18.77 0.0181306 15.3291 -0.502788 11.3256 0.980534C10.19 1.39815 6.39253 2.947 3.5525 6.89494C2.89053 7.81459 1.28503 10.2464 0.510886 14.6681C-1.17402 24.2811 2.52457 35.0347 7.94583 41.5361C13.8886 48.6662 14.5361 49.3093 14.5361 49.3093C16.071 50.8348 17.2023 52.7219 18.5912 54.3785C18.8916 54.74 19.5064 55.4675 19.7741 56.5754C20.0695 57.8055 19.7835 58.8706 19.6053 59.4482C18.554 62.8041 15.7234 66.3905 14.3667 69.5871C13.9818 70.4928 11.8882 75.6847 14.0285 80.8522C14.385 81.7158 15.6384 84.6263 18.76 86.485C21.5767 88.1611 24.3551 88.0528 26.3077 87.9495C31.0581 87.7007 34.9022 85.8514 38.362 83.6689C41.5163 81.6786 52.4249 74.5907 58.7525 60.7999C60.8461 56.2377 61.8552 52.2193 63.0331 47.5066C63.7933 44.465 64.3426 41.6394 64.3848 38.1563C64.4364 33.5225 63.9166 31.109 61.0188 27.3299C54.8734 19.3152 31.6973 1.9574 21.8022 0.474081V0.473512Z" fill="#1E90FF"/>
<path d="M66.9219 20.2461C70.0951 20.2461 72.6675 17.6737 72.6675 14.5005C72.6675 11.3273 70.0951 8.75488 66.9219 8.75488C63.7487 8.75488 61.1763 11.3273 61.1763 14.5005C61.1763 17.6737 63.7487 20.2461 66.9219 20.2461Z" fill="#1E90FF"/>
</svg>
