<svg width="302" height="56" viewBox="0 0 302 56" fill="none" xmlns="http://www.w3.org/2000/svg">
<path d="M88.0141 6.70117C81.2697 6.70117 75.8743 10.6952 75.8743 17.118C75.8743 22.6231 79.9748 25.3222 85.5323 27.4809L87.7986 28.3447C91.9529 29.964 93.8415 31.2594 93.8415 34.0659C93.8415 37.7361 90.2269 38.7616 87.5826 38.7616C85.5323 38.7616 82.9962 38.0061 81.1081 35.6308C80.3529 34.6053 79.2738 33.5798 77.6551 33.5798C75.6587 33.5798 74.6875 35.1452 74.6875 36.6562C74.6875 38.2755 75.6587 39.5166 76.198 40.1643C78.8419 43.5107 83.32 45.2377 87.5826 45.2377C93.8416 45.2377 101.233 41.5136 101.233 34.0654C101.233 28.8842 97.8343 25.8073 89.4173 22.6231L87.3132 21.8137C84.0757 20.5722 83.1049 18.9529 83.1049 17.1719C83.1049 14.7971 84.9936 13.1239 88.2844 13.1239C90.6584 13.1239 91.9534 13.9872 93.4639 15.5526C94.1653 16.3081 95.2443 17.0102 96.3776 17.0102C98.1041 17.0102 99.3991 15.7148 99.3991 14.0955C99.3991 13.0161 98.8594 12.0446 97.8343 10.8569C95.6758 8.48215 92.7625 6.70117 88.0146 6.70117H88.0141Z" fill="black"/>
<path d="M121.791 16.4707C117.96 16.4707 114.884 18.5216 113.805 21.0586V20.1409C113.805 18.2517 112.186 16.6329 110.244 16.6329C108.355 16.6329 106.629 18.2521 106.629 20.1409V51.9852C106.629 53.9284 108.248 55.4933 110.19 55.4933C112.079 55.4933 113.751 53.9279 113.751 51.9852V42.27C113.805 42.1078 113.805 41.8923 113.805 41.6762V40.6507C114.237 42.3239 117.097 45.2386 121.791 45.2386C127.726 45.2386 134.848 40.6507 134.848 30.8277C134.848 21.2208 127.672 16.4707 121.791 16.4707ZM120.496 39.1392C117.474 39.1392 113.481 36.9266 113.481 30.8272C113.481 24.7283 117.474 22.5152 120.496 22.5152C124.057 22.5152 127.78 25.3221 127.78 30.8272C127.78 36.3867 124.057 39.1392 120.496 39.1392Z" fill="black"/>
<path d="M153.138 16.4707C146.934 16.4707 138.732 21.2742 138.732 30.8816C138.732 40.5429 146.933 45.2386 153.138 45.2386C159.29 45.2386 167.545 40.5429 167.545 30.8816C167.545 21.2746 159.289 16.4707 153.138 16.4707ZM153.138 22.6235C156.915 22.6235 160.53 25.646 160.53 30.8816C160.53 36.0628 156.915 39.0853 153.138 39.0853C149.307 39.0853 145.747 36.0628 145.747 30.8816C145.747 25.646 149.307 22.6235 153.138 22.6235Z" fill="black"/>
<path d="M185.511 38.8155C184.917 38.8155 184.054 39.031 183.461 39.031C182.273 39.031 181.734 38.2216 181.734 36.6563V22.3531H185.295C187.075 22.3531 188.155 21.2199 188.155 19.6006C188.155 17.9274 187.076 16.7942 185.295 16.7942H181.734V13.1239C181.734 11.1808 180.169 9.56152 178.227 9.56152C176.285 9.56152 174.666 11.1808 174.666 13.1239V16.7942H173.101C171.375 16.7942 170.241 17.9274 170.241 19.6006C170.241 21.2199 171.375 22.3531 173.101 22.3531H174.666V36.4402C174.666 43.9428 178.389 45.1299 182.058 45.1299C185.727 45.1299 188.155 43.8345 188.155 41.3519C188.155 39.6788 187.129 38.7072 185.511 38.8155Z" fill="black"/>
<path d="M200.079 41.6217V9.83129C200.079 7.94205 198.46 6.32324 196.572 6.32324C194.629 6.32324 193.011 7.94252 193.011 9.83129V41.6217C193.011 43.5649 194.629 45.1298 196.572 45.1298C198.461 45.1298 200.079 43.5644 200.079 41.6217Z" fill="black"/>
<path d="M210.169 12.8003C212.057 12.8003 213.73 11.181 213.73 9.29223C213.73 7.40299 212.057 5.78418 210.169 5.78418C208.226 5.78418 206.554 7.40346 206.554 9.29223C206.554 11.1815 208.226 12.8003 210.169 12.8003ZM210.169 16.6327C208.226 16.6327 206.608 18.2519 206.608 20.1951V41.5682C206.608 43.5652 208.226 45.1845 210.169 45.1845C212.057 45.1845 213.676 43.5652 213.676 41.5682V20.1951C213.676 18.2519 212.057 16.6327 210.169 16.6327Z" fill="black"/>
<path d="M247.344 20.1409C247.344 18.2517 245.617 16.6329 243.729 16.6329C241.786 16.6329 240.168 18.2521 240.168 20.1409V21.0586C239.089 18.5221 236.013 16.4707 232.182 16.4707C226.301 16.4707 219.125 21.2203 219.125 30.8277C219.125 40.6507 226.247 45.2386 232.182 45.2386C236.876 45.2386 239.736 42.3239 240.168 40.6507V44.3209C240.168 47.5051 237.74 49.826 233.369 49.826C230.942 49.826 229.107 49.1783 228.028 48.9084C227.326 48.6923 226.895 48.6384 226.571 48.6384C225.061 48.6384 223.766 49.8256 223.766 51.4448C223.766 52.7403 224.575 53.8196 226.086 54.4673C227.273 55.0073 229.97 55.9245 233.316 55.9245C239.035 55.9245 247.236 53.118 247.236 44.3205V42.4856C247.29 42.2161 247.344 41.9461 247.344 41.6762V20.1409ZM233.478 39.1392C229.916 39.1392 226.194 36.3867 226.194 30.8272C226.194 25.3221 229.917 22.5152 233.478 22.5152C236.499 22.5152 240.492 24.7283 240.492 30.8272C240.492 36.9261 236.499 39.1392 233.478 39.1392Z" fill="black"/>
<path d="M270.059 16.524C264.232 16.524 261.048 20.9497 260.833 22.8929V9.83129C260.833 7.94205 259.214 6.32324 257.326 6.32324C255.383 6.32324 253.765 7.94252 253.765 9.83129V41.6217C253.765 43.5649 255.383 45.1298 257.326 45.1298C259.214 45.1298 260.833 43.5644 260.833 41.6217V28.614C261.049 27.103 262.667 22.569 267.523 22.569C270.706 22.569 273.242 24.5661 273.242 29.4234V41.6212C273.242 43.5644 274.861 45.1293 276.749 45.1293C278.692 45.1293 280.311 43.5639 280.311 41.6212V29.4234C280.311 20.086 275.509 16.524 270.059 16.524Z" fill="black"/>
<path d="M299.356 38.8155C298.763 38.8155 297.9 39.031 297.306 39.031C296.119 39.031 295.58 38.2216 295.58 36.6563V22.3531H299.14C300.921 22.3531 302 21.2199 302 19.6006C302 17.9274 300.921 16.7942 299.14 16.7942H295.58V13.1239C295.58 11.1808 294.015 9.56152 292.073 9.56152C290.13 9.56152 288.512 11.1808 288.512 13.1239V16.7942H286.947C285.22 16.7942 284.087 17.9274 284.087 19.6006C284.087 21.2199 285.22 22.3531 286.947 22.3531H288.512V36.4402C288.512 43.9428 292.234 45.1299 295.903 45.1299C299.572 45.1299 302 43.8345 302 41.3519C302 39.6788 300.975 38.7072 299.356 38.8155Z" fill="black"/>
<path d="M30.1413 48.5568C43.5449 48.5568 54.4106 37.6874 54.4106 24.2794C54.4106 10.8713 43.5449 0.00195312 30.1413 0.00195312C16.7378 0.00195312 5.87207 10.8713 5.87207 24.2794C5.87207 37.6874 16.7378 48.5568 30.1413 48.5568Z" fill="black"/>
<path d="M24.2716 48.5596C37.6765 48.5596 48.5433 37.6891 48.5433 24.2798C48.5433 10.8704 37.6765 0 24.2716 0C10.8668 0 0 10.8704 0 24.2798C0 37.6891 10.8668 48.5596 24.2716 48.5596Z" fill="#FEFD00"/>
</svg>
